# xmcd CD database file
#
# Track frame offsets:
#	150
#	45521
#	79017
#	110285
#	132255
#	152214
#	201586
#
# Disc length: 3200 seconds
#
# Revision: 0
# Processed by: cddbd v1.5.1PL0 Copyright (c) Steve Scherf et al.
# Submitted via: CDex 1.51
#
DISCID=580c7e07
DTITLE=Shane Gallagher and Jeff Solon - Jazz Duo
DYEAR=1998
DGENRE=Jazz
TTITLE0=Windows
TTITLE1=Angel Eyes
TTITLE2=Serenade to A Cuckoo
TTITLE3=I Remember Clifford
TTITLE4=Blues For Bones
TTITLE5=A Child Is Born
TTITLE6=Peri's Scope
EXTD=YEAR: 1998
EXTT0=
EXTT1=
EXTT2=
EXTT3=
EXTT4=
EXTT5=
EXTT6=
PLAYORDER=
